<svg id="crosshair" xmlns="http://www.w3.org/2000/svg" viewBox="0 0 337 337"><defs><style>.cls-1,.cls-2{fill:#fff;stroke:#231f20;stroke-miterlimit:10;}.cls-1{stroke-width:3px;}</style></defs><circle class="cls-1" cx="168.5" cy="168.5" r="30.7"/><path class="cls-1" d="M304.1,277.1l-.06,1.34q-1.79,42.36-3.58,84.72a13.46,13.46,0,0,1-26.92,0q-1.8-42.36-3.58-84.72l-.06-1.34a17.1,17.1,0,0,1,34.2,0Z" transform="translate(-118.5 -258.5)"/><path class="cls-1" d="M137.1,409.9l1.34.06,84.72,3.58a13.46,13.46,0,1,1,0,26.92L138.44,444l-1.34.06a17.1,17.1,0,1,1,0-34.2Z" transform="translate(-118.5 -258.5)"/><path class="cls-1" d="M269.9,576.9l.06-1.34q1.79-42.36,3.58-84.72a13.46,13.46,0,0,1,26.92,0q1.8,42.36,3.58,84.72l.06,1.34a17.1,17.1,0,1,1-34.2,0Z" transform="translate(-118.5 -258.5)"/><path class="cls-1" d="M436.9,444.1l-1.34-.06-84.72-3.58a13.46,13.46,0,0,1,0-26.92L435.56,410l1.34-.06a17.1,17.1,0,0,1,0,34.2Z" transform="translate(-118.5 -258.5)"/><path class="cls-2" d="M328.62,290.09" transform="translate(-118.5 -258.5)"/></svg>