<svg xmlns="http://www.w3.org/2000/svg" viewBox="0 0 470.11 470.5"><defs><style>.cls-1{fill:#cb7f29;}.cls-1,.cls-2,.cls-3,.cls-4{stroke:#231f20;stroke-miterlimit:10;}.cls-2{fill:#f29938;}.cls-3{fill:#f9ca47;}.cls-4{fill:#f4f0d8;}</style></defs><g id="base"><path class="cls-1" d="M480.17,520.05A152.55,152.55,0,0,1,483,549.5c0,47.08-20.87,86.21-48.33,94.06-.22.06-2.14.37-4.26.68-2.53.37-5.35.76-5.91.76A39.31,39.31,0,0,1,403,638.36a23.55,23.55,0,0,1,.82,6.15c0,21-28.12,38-62.81,38-29.58,0-54.38-12.37-61-29a108.15,108.15,0,0,1-33.74,5.12c-29.36,0-54-10.5-61-24.7a48.28,48.28,0,0,1-21,4.78c-27.28,0-49.4-22.54-49.4-50.36a51.06,51.06,0,0,1,4.89-21.88A64,64,0,0,1,103,550.81l-38.45,8.68L93,534.42c-9.33-18.89-15-43.28-15-69.92,0-53.49,22.65-97.94,52.46-106.87A186.46,186.46,0,0,1,148.65,331a43.07,43.07,0,0,1-.05-34.59l-19.47-33.54L160,280.3c11-10.46,27.08-17.05,45-17.05a71.27,71.27,0,0,1,13.76,1.33,32.4,32.4,0,0,1-.27-4.19c0-26.17,31.21-47.39,69.7-47.39,32,0,58.94,14.65,67.14,34.62a65.34,65.34,0,0,1,6.78-.34c12.58,0,23.89,3.4,31.68,8.81A57.2,57.2,0,0,1,423,248a57.79,57.79,0,0,1,33.45,10.83l40.34-28.66-24.35,44.5C482.14,288,488,305.18,488,324a86.82,86.82,0,0,1-4.71,28.41c27.43,3,49.1,39.35,49.1,83.73C532.39,482.19,509.06,519.58,480.17,520.05Z" transform="translate(-62.78 -212.5)"/></g><g id="level_2" data-name="level 2"><path class="cls-2" d="M146.52,505.45a2.91,2.91,0,0,1,0-.59S146.5,505,146.52,505.45Z" transform="translate(-62.78 -212.5)"/><path class="cls-2" d="M437,413.6l-.76.58c-.06-.22-.14-.44-.21-.65C436.31,413.54,436.64,413.56,437,413.6Z" transform="translate(-62.78 -212.5)"/><path class="cls-2" d="M437,413.6l-.76.58c-.06-.22-.14-.44-.21-.65C436.31,413.54,436.64,413.56,437,413.6Z" transform="translate(-62.78 -212.5)"/><path class="cls-2" d="M452.5,507.82a44.63,44.63,0,0,1,5.5,21.31c0,26.68-24.63,49.24-58.43,56.52.89,2.59,1.77,5.22,2.65,7.87q1.83,5.54,3.5,11L387,587.6q-5.41.52-11,.53c-1.81,0-3.6,0-5.37-.13-2.89,18.56-27.37,33.06-57.15,33.06-31.73,0-57.45-16.46-57.45-36.76A24.37,24.37,0,0,1,257.5,576a104.67,104.67,0,0,1-12.53.74c-33.92,0-62.07-15.77-67.51-36.47a36.39,36.39,0,0,1-27-19.45l-35.63,9.64,31.69-25c.1,0,.81-5.7,1.53-11.76-5.09-.84-9.73-4.09-13.36-9a6.41,6.41,0,0,1-.39-.52c-7.58-10.06-12.58-27.39-12.58-47.08,0-25.4,8.31-46.86,19.72-53.87a43,43,0,0,1-2.61-14.37c-.12-19.9,14-38.88,35.62-47.45l-14.17-28.19,31.65,22.36a96.9,96.9,0,0,1,12-1.87c.8-15.63,21.25-28.15,46.37-28.15,13.31,0,25.3,3.51,33.77,9.14,17.14-7.76,41.7-12.63,69-12.63,27.84,0,52.85,5.07,70,13.12l49.16-36.94q-14.59,26-29.17,51.94a19.13,19.13,0,0,1,3.81,11.09,15,15,0,0,1-.1,1.76c12.58,9.66,20.79,25.55,20.79,43.54,0,17.49-7.77,33-19.78,42.74-.31,0-.63-.06-.94-.07.07.21.15.43.2.65.25-.19.5-.38.74-.58,16.4,1.64,29.39,23.29,29.39,49.76C477.22,483,466.63,503,452.5,507.82Z" transform="translate(-62.78 -212.5)"/></g><g id="level_3" data-name="level 3"><path class="cls-3" d="M211.38,427.67c-.15.66-.3,1.33-.44,2-.43-.76-.84-1.54-1.24-2.35A8.1,8.1,0,0,1,211.38,427.67Z" transform="translate(-62.78 -212.5)"/><path class="cls-3" d="M211.38,427.67c-.15.66-.3,1.33-.44,2-.43-.76-.84-1.54-1.24-2.35A8.1,8.1,0,0,1,211.38,427.67Z" transform="translate(-62.78 -212.5)"/><path class="cls-3" d="M180.23,468.84c-.59,1.93-1,3.56-1.5,5a20.94,20.94,0,0,1-1.37-2C178.26,470.86,179.22,469.83,180.23,468.84Z" transform="translate(-62.78 -212.5)"/><path class="cls-3" d="M440.11,396.35c0,18-5.92,34-15.28,44.9a56.35,56.35,0,0,1,7,27.27c0,27.23-19.36,50.11-45.49,56.43a50.16,50.16,0,0,1-11.66,17.9q3.33,8.68,7.09,17.7T389.37,578q-7.71-5.49-15.61-11.43t-15.11-11.68c-14,7.86-31.82,12.57-51.23,12.57-21.85,0-41.69-6-56.31-15.66-4.39,7-13.25,11.8-23.47,11.8-14.59,0-26.42-9.78-26.42-21.83a15.71,15.71,0,0,1,.11-1.95c-15.64-6.36-27.38-17.19-32-30.13l-.91.16c-7.83,1.42-15.12,3.13-21.83,5,7.19-7.67,13.34-14.37,18.25-19.79,1.06-1.16,2-2.2,2.83-3.13a39.74,39.74,0,0,1,8.41-18.5,21.35,21.35,0,0,1-6.62-8.1c-7.9-9.79-12.79-23.42-12.79-38.48,0-29.84,19.21-54,42.9-54,.86,0,1.71,0,2.55.1,3.86-7.17,9-12.65,14.88-15.62L189.38,325.4l33.32,23.46c5.75-20.17,40.57-35.68,82.66-35.68,29.53,0,55.47,7.63,70.32,19.17.63,0,1.26-.05,1.89-.05a41.36,41.36,0,0,1,14.36,2.57l49.2-40.36q-8.5,12.63-17,25.87-6.6,10.26-12.84,20.34C428.09,349,440.11,370.77,440.11,396.35Z" transform="translate(-62.78 -212.5)"/></g><g id="level_4" data-name="level 4"><path class="cls-4" d="M368.72,383.8q-4.85,9.54-9.49,19a23.7,23.7,0,0,1,6.08,16.37c0,8.41-3.84,15.66-9.42,19.08A30.45,30.45,0,0,1,361.3,456c0,13.17-7.58,24.08-17.48,26-.32,6.62-4.47,12-8.09,15.48L345.3,520l-16.59-17.75a36.78,36.78,0,0,1-16.55,3.4c-17.86-.59-28.46-14.46-29.94-16.46a15.4,15.4,0,0,1-7.54,2c-8.2,0-15.11-6.56-17.12-15.47a15.57,15.57,0,0,1-5.05-2.53l-36,13.32q8-6.31,16.78-12.72,6.62-4.81,13.06-9.18a20,20,0,0,1-.47-11.18.35.35,0,0,1,0-.06,19.84,19.84,0,0,1,1.78-4.55l.06-.07a10.41,10.41,0,0,1,2.69-2.84,4.83,4.83,0,0,1-.4-.38c-3.87-3.7-6.38-9.7-6.38-16.48,0-10.31,5.83-18.83,13.38-20.19a17.5,17.5,0,0,1-.79-5.2A17.18,17.18,0,0,1,260.75,392q-3.36-3.65-6.72-7.37-7.62-8.42-14.81-16.76,8.35,5.2,17,11,6.25,4.2,12.19,8.41a15.75,15.75,0,0,1,6.35-.51c2.42-7.75,9.16-13.34,17.08-13.34a17.82,17.82,0,0,1,15.72,10,23.57,23.57,0,0,1,18.53-8.64A23.24,23.24,0,0,1,346,385.47q6.76-3.92,13.78-8.36c6.71-4.25,13-8.53,19-12.77Q373.72,373.94,368.72,383.8Z" transform="translate(-62.78 -212.5)"/></g></svg>