<svg id="_2nd_layer" data-name="2nd layer" xmlns="http://www.w3.org/2000/svg" viewBox="0 0 362.65 210.26"><defs><style>.cls-1{fill:#848484;}.cls-1,.cls-2,.cls-3,.cls-4,.cls-7{stroke:#231f20;stroke-miterlimit:10;}.cls-2{fill:#636464;}.cls-3{fill:#6d6d6d;}.cls-4,.cls-5{fill:#e3b349;}.cls-6{fill:#231f20;}</style></defs><circle class="cls-1" cx="105.13" cy="105.13" r="104.63"/><rect class="cls-2" x="133.58" y="94.3" width="135.15" height="21.65"/><circle class="cls-3" cx="105.13" cy="105.13" r="58.86"/><circle class="cls-4" cx="68.81" cy="177.96" r="20.72"/><circle class="cls-4" cx="143.27" cy="177.96" r="20.72"/><circle class="cls-4" cx="141.9" cy="31.66" r="20.72"/><circle class="cls-4" cx="68.36" cy="31.66" r="20.72"/><line class="cls-5" x1="68.36" y1="31.66" x2="142.81" y2="31.66"/><polygon class="cls-6" points="68.36 29.06 142.81 28.8 142.81 34.51 68.36 34.26 68.36 29.06 68.36 29.06"/><line class="cls-5" x1="67.9" y1="177.96" x2="142.36" y2="177.96"/><polygon class="cls-6" points="67.9 175.36 142.36 175.1 142.36 180.81 67.9 180.56 67.9 175.36 67.9 175.36"/><path class="cls-6" d="M262.12,473.29c-29.48-2.27-50.76-33.17-30.05-58.45a45.42,45.42,0,0,1,8.31-8l2.52,3.52a41.19,41.19,0,0,0-7.39,7.25c-12.3,14.8-7.86,33.8,7.62,44.17a41.29,41.29,0,0,0,19.38,6.6l-.39,4.92Z" transform="translate(-194.42 -292.87)"/><path class="cls-6" d="M264.81,327c-23.53,1.17-46.07,23.86-27,45.39a39.3,39.3,0,0,0,7.32,6.46l-2.36,3.63a43.55,43.55,0,0,1-8.25-7.16c-18.42-20-4-44.57,19.24-51.27a54.14,54.14,0,0,1,10.69-2l.36,4.94Z" transform="translate(-194.42 -292.87)"/><rect class="cls-2" x="268.73" y="89.43" width="93.41" height="30.94"/><ellipse class="cls-7" cx="281.88" cy="93.77" rx="4.96" ry="2.85"/><ellipse class="cls-7" cx="298.5" cy="94.07" rx="4.96" ry="2.85"/><ellipse class="cls-7" cx="316.37" cy="94.07" rx="4.96" ry="2.85"/><ellipse class="cls-7" cx="332.24" cy="94.07" rx="4.96" ry="2.85"/><ellipse class="cls-7" cx="349.11" cy="94.07" rx="4.96" ry="2.85"/><ellipse class="cls-7" cx="282.5" cy="115.58" rx="4.96" ry="2.85"/><ellipse class="cls-7" cx="299.12" cy="115.88" rx="4.96" ry="2.85"/><ellipse class="cls-7" cx="316.99" cy="115.88" rx="4.96" ry="2.85"/><ellipse class="cls-7" cx="332.86" cy="115.88" rx="4.96" ry="2.85"/><ellipse class="cls-7" cx="349.73" cy="115.88" rx="4.96" ry="2.85"/><ellipse class="cls-7" cx="281.88" cy="104.67" rx="4.65" ry="3.24"/><ellipse class="cls-7" cx="298.5" cy="104.67" rx="4.65" ry="3.24"/><ellipse class="cls-7" cx="316.37" cy="104.67" rx="4.65" ry="3.24"/><ellipse class="cls-7" cx="332.24" cy="104.67" rx="4.65" ry="3.24"/><ellipse class="cls-7" cx="349.11" cy="104.67" rx="4.65" ry="3.24"/></svg>