<svg id="gun" xmlns="http://www.w3.org/2000/svg" viewBox="0 0 610.48 158.87"><defs><style>.cls-1{fill:#363434;}.cls-1,.cls-2,.cls-4{stroke:#231f20;}.cls-1,.cls-2,.cls-3,.cls-4{stroke-miterlimit:10;}.cls-2{fill:#a9926a;}.cls-3{fill:none;stroke:#363434;}.cls-4{fill:#e5bca1;}</style></defs><polyline class="cls-1" points="358.08 8.74 358.06 12.74 436.62 12.97 436.64 3.09 434.39 3.09"/><rect class="cls-1" x="416.33" y="391.16" width="18.3" height="35.24" rx="5.16" transform="translate(-137.09 -101.19) rotate(-31.92)"/><rect class="cls-1" x="425.94" y="473.95" width="27.14" height="56.93" rx="2.69" transform="translate(-165.53 -133.58) rotate(-27.01)"/><rect class="cls-1" x="342.35" y="477.5" width="83.12" height="7.63" transform="translate(16.1 -389.09) rotate(0.17)"/><rect class="cls-1" x="334.81" y="415.39" width="113.91" height="7.63" transform="translate(15.92 -389.11) rotate(0.17)"/><rect class="cls-1" x="412.23" y="467.08" width="26.52" height="10.54" transform="matrix(1, 0, 0, 1, 16.07, -389.21)"/><rect class="cls-1" x="323.32" y="420.12" width="11.45" height="30.88" transform="translate(15.97 -388.93) rotate(0.17)"/><rect class="cls-1" x="388.28" y="457.42" width="52.69" height="8.9" transform="translate(16.04 -389.17) rotate(0.17)"/><rect class="cls-1" x="341.39" y="456.37" width="46.87" height="21.07" transform="translate(16.06 -389.03) rotate(0.17)"/><path class="cls-1" d="M451.51,457.35l.06-20.53A10.9,10.9,0,0,1,462.5,426l121.91.35a10.91,10.91,0,0,1,10.87,10.93L595.11,493a10.9,10.9,0,0,1-10.93,10.87" transform="translate(14.71 -387.98)"/><rect class="cls-1" x="334.75" y="423.03" width="121.18" height="33.43" transform="translate(15.98 -389.12) rotate(0.17)"/><rect class="cls-1" x="104.54" y="388.53" width="4.29" height="30.62" rx="0.85" transform="translate(37.23 -393.27) rotate(3.17)"/><rect class="cls-1" x="122.55" y="390.77" width="3.44" height="29.23" transform="translate(-205.98 -229.14) rotate(-37.4)"/><rect class="cls-1" x="101.95" y="417.96" width="24.03" height="4.58" transform="translate(15.92 -388.31) rotate(0.17)"/><path class="cls-1" d="M315,415.17l-182.25-.53a8.34,8.34,0,0,0-8.41,8.26l0,17.59a.79.79,0,0,0,.64.77c12.71,2.43,25.44,4.71,38.17,7l1.41.13H165a5.4,5.4,0,0,1,2-.27c16.49.73,33,1.76,49.39,3.3,15.88,1.49,31.74,4.41,47.71,4.61a5.52,5.52,0,0,1,2,.4.8.8,0,0,0,.3.06A64.39,64.39,0,0,1,276,457h.09l38.82.12a8.35,8.35,0,0,0,8.41-8.26l.07-25.41A8.33,8.33,0,0,0,315,415.17Z" transform="translate(14.71 -387.98)"/><rect class="cls-1" x="124.26" y="441.7" width="7.81" height="8.36" transform="translate(16 -388.35) rotate(0.17)"/><rect class="cls-1" x="99.92" y="426.62" width="24.39" height="9.17" transform="translate(15.95 -388.3) rotate(0.17)"/><rect class="cls-1" x="93.76" y="435.76" width="13.26" height="10.99" transform="matrix(1, 0, 0, 1, 15.98, -388.27)"/><rect class="cls-1" x="101.93" y="422.93" width="10.2" height="3.68" transform="translate(15.93 -388.29) rotate(0.17)"/><rect class="cls-1" x="107.45" y="388.56" width="11.38" height="9.33" rx="3.06" transform="translate(15.84 -388.3) rotate(0.17)"/><rect class="cls-1" x="335.09" y="403.65" width="3.54" height="11.58" rx="1.34" transform="translate(15.89 -388.95) rotate(0.17)"/><rect class="cls-1" x="338.45" y="396.68" width="3" height="9.33" rx="1.3" transform="translate(480.23 -497.39) rotate(54.08)"/><rect class="cls-1" x="20.34" y="425.95" width="79.57" height="9.47" rx="1.31" transform="translate(15.95 -388.15) rotate(0.17)"/><rect class="cls-1" x="-14.19" y="422.63" width="34.54" height="14.19" rx="2.02" transform="translate(15.95 -387.99) rotate(0.17)"/><rect class="cls-2" x="343.25" y="485.07" width="40.15" height="61.22" transform="translate(16.2 -389.03) rotate(0.17)"/><line class="cls-3" x1="363.77" y1="97.05" x2="363.5" y2="158.27"/><line class="cls-3" x1="369.31" y1="97.07" x2="368.77" y2="158.29"/><line class="cls-3" x1="375.12" y1="97.12" x2="374.77" y2="158.34"/><line class="cls-3" x1="380.03" y1="97.1" x2="379.31" y2="158.32"/><line class="cls-3" x1="384.84" y1="97.11" x2="384.67" y2="158.33"/><line class="cls-3" x1="389.66" y1="97.12" x2="389.94" y2="158.35"/><line class="cls-3" x1="394.2" y1="97.14" x2="393.75" y2="158.36"/><circle class="cls-4" cx="483.96" cy="98.95" r="31.55"/><circle class="cls-4" cx="210.5" cy="84.47" r="31.55"/></svg>