<svg xmlns="http://www.w3.org/2000/svg" viewBox="0 0 585.18 728.16"><defs><style>.cls-1,.cls-2,.cls-3{fill:#437d43;}.cls-1{stroke:#1b0900;}.cls-1,.cls-2,.cls-4,.cls-5,.cls-6,.cls-7,.cls-8,.cls-9{stroke-miterlimit:10;}.cls-2{stroke:#1c1d21;}.cls-4{fill:#e5bca1;}.cls-4,.cls-5,.cls-6,.cls-8,.cls-9{stroke:#231f20;}.cls-5{fill:#231f20;}.cls-6{fill:#fff;}.cls-7{fill:#d37c99;stroke:#d37c99;}.cls-8{fill:#b6842c;}.cls-9{fill:#979da5;}</style></defs><g id="body"><path class="cls-1" d="M394.29,615.83A111.83,111.83,0,1,1,282.46,504,111.83,111.83,0,0,1,394.29,615.83Z"/><path class="cls-1" d="M394.29,329.85A111.83,111.83,0,1,1,282.46,218,111.83,111.83,0,0,1,394.29,329.85Z"/><rect class="cls-2" x="170.64" y="336.67" width="223.65" height="279.16"/><path class="cls-3" d="M393.61,335.51a3.74,3.74,0,0,0-.4-1,4.54,4.54,0,0,0-4.53-3.23,5.12,5.12,0,0,0-2.19.47h-.18a39.55,39.55,0,0,1-10-1.11,5.54,5.54,0,0,0-4.64,1.11,4.19,4.19,0,0,0-4-1.87,636.46,636.46,0,0,1-68.36,1.45c-21.51-.84-43.73-1.21-65.21.89a5,5,0,0,0-2.48-.69c-9-.25-17.85,1.16-26.81,1.73s-17.59-.33-26.33-1.52a5.43,5.43,0,0,0-1.4,0,5.62,5.62,0,0,0-1-.1,4.6,4.6,0,0,0-4.74,4.05,5.38,5.38,0,0,0,1.23,4.69l.05.05a3.87,3.87,0,0,0,.57.49l.19.13a3.49,3.49,0,0,0,.57.32l.35.13.34.11a5.86,5.86,0,0,0,.75.14l.18,0c.17,0,.33.05.51.05h.42l.19,0h.11l.28,0,.11,0h.08l.12,0a.8.8,0,0,0,.15,0l.15,0h0c8.39,1.13,16.83,2.14,25.3,1.74s17.14-1.77,25.76-1.85a4.18,4.18,0,0,0,3.3.91c22.13-2.34,45.08-2,67.29-1.1a636.46,636.46,0,0,0,68.36-1.45,4.94,4.94,0,0,0,3.3-1.48,4.28,4.28,0,0,0,2.71,1.88c4.1.78,8.51,1.75,12.7,1.47a7.36,7.36,0,0,0,.82-.12l.14,0c.15,0,.29.1.45.13h.1a4.44,4.44,0,0,0,.75.07h.31a4.58,4.58,0,0,0,.9-.09l.24-.05.21-.05.34-.11.2-.08.32-.15.17-.09a2.2,2.2,0,0,0,.32-.21l.12-.07.4-.34,0,0,.1-.12a4.81,4.81,0,0,0,.86-1.08l.07-.15a4.09,4.09,0,0,0,.41-1l0-.07a5.06,5.06,0,0,0,.16-1.15A3.63,3.63,0,0,0,393.61,335.51Z"/><path class="cls-3" d="M389,610.6a5.25,5.25,0,0,0-1.35.17,29.29,29.29,0,0,0-4.5.73c-3.54.6-7.42-.07-11-.11-7.68-.08-15.36.22-23,.5l-.34,0c-3.14-2.12-6.36-1.54-10.23-1.33-4.34.24-8.69.48-13,.5-9.67,0-19.3-1-29-.76a4.86,4.86,0,0,0-2.92,1,6,6,0,0,0-.75,0q-29.2.25-58.4-.37a5,5,0,0,0-2.11.38,5.39,5.39,0,0,0-1.46-.35c-5.72-.56-11.26.72-17,.65-6.72-.08-13.43-.52-20.13-.94a4.49,4.49,0,0,0-3,.8,6.72,6.72,0,0,0-1.89-.47,51.11,51.11,0,0,0-6.43-.2,5.48,5.48,0,0,0-3.12,1.15s0,0-.05-.06l0,0-.36-.3a.41.41,0,0,1-.11-.07l-.33-.2-.16-.08-.32-.15-.19-.07-.35-.11-.19-.05-.4-.07-.19,0c-.21,0-.41,0-.63,0a6,6,0,0,0-.61,0l-.19,0a2.38,2.38,0,0,0-.37.06l-.21.05-.32.09-.2.08-.28.12-.19.1-.26.14-.17.12-.23.17-.16.13-.21.2-.13.14a2.11,2.11,0,0,0-.19.23.76.76,0,0,0-.11.14,2.4,2.4,0,0,0-.18.26l-.09.14-.16.3-.06.12-.15.35,0,.09c-.05.15-.1.29-.14.45h0a5.54,5.54,0,0,0-.16,2h0a2.28,2.28,0,0,0,0,.26.13.13,0,0,1,0,.06,6,6,0,0,0,.26,1,4.7,4.7,0,0,0,1.69,2.44l0,0a3.79,3.79,0,0,0,.74.41l.12.05a4.84,4.84,0,0,0,.79.24l.06,0a5.58,5.58,0,0,0,1.26.15,4.66,4.66,0,0,0,3.22-1.17,4.49,4.49,0,0,0,3,1,51.11,51.11,0,0,1,6.43.2,4.13,4.13,0,0,0,2.85-.88,5.26,5.26,0,0,0,2.06.55c6.7.42,13.41.85,20.13.94,5.72.07,11.27-1.21,17-.65a4.77,4.77,0,0,0,2.16-.25,5.63,5.63,0,0,0,1.41.22q29.21.61,58.4.37a4.82,4.82,0,0,0,3-1,5.39,5.39,0,0,0,.71,0c8.38-.17,16.73.54,25.11.72,7.25.15,14.78-1.11,22-.74a4.93,4.93,0,0,0,2.13.46,4.52,4.52,0,0,0,3.32,1.12c7-.26,14.08-.52,21.12-.51,5.84,0,11.18.43,16.8-.7a5.19,5.19,0,0,0,2,.37,5.24,5.24,0,0,0,0-10.45Z"/></g><g id="head"><ellipse class="cls-4" cx="280.39" cy="113.55" rx="89.91" ry="97.37"/></g><g id="face"><ellipse class="cls-5" cx="246.4" cy="126.35" rx="7.91" ry="14.49"/><ellipse class="cls-5" cx="318.53" cy="126.35" rx="7.91" ry="14.49"/><ellipse class="cls-6" cx="282.46" cy="174.22" rx="28.15" ry="12.79"/><path class="cls-4" d="M304,115.6a30.91,30.91,0,0,1,22.42-15.66"/><path class="cls-4" d="M258.54,115.6a30.15,30.15,0,0,0-8.36-10.42,26,26,0,0,0-11.69-5.24"/><ellipse class="cls-7" cx="282.09" cy="174.22" rx="27.48" ry="4.51"/></g><g id="Wok"><rect class="cls-8" x="340.44" y="78.58" width="149.11" height="17.94"/><rect class="cls-9" x="155.75" y="84.49" width="35.49" height="6.13" transform="translate(-10.45 24.86) rotate(-7.96)"/><path class="cls-9" d="M180.56,102.4a101.9,101.9,0,0,1,203.8,0"/></g></svg>