<?xml version="1.0" encoding="utf-8"?>
<!-- Generator: Adobe Illustrator 26.0.3, SVG Export Plug-In . SVG Version: 6.00 Build 0)  -->
<svg version="1.1" id="Layer_1" xmlns="http://www.w3.org/2000/svg" xmlns:xlink="http://www.w3.org/1999/xlink" x="0px" y="0px"
	 viewBox="0 0 1080 1920" style="enable-background:new 0 0 1080 1920;" xml:space="preserve">
<style type="text/css">
	.st0{fill:#C69C6D;stroke:#000000;stroke-miterlimit:10;}
	.st1{fill:#8C6239;}
	.st2{fill:none;stroke:#000000;stroke-miterlimit:10;}
	.st3{fill:none;stroke:#000000;stroke-width:4;stroke-miterlimit:10;}
	.st4{fill:#4D4D4D;stroke:#000000;stroke-width:4;stroke-miterlimit:10;}
</style>
<rect x="-0.5" y="-0.5" class="st0" width="1080" height="1920"/>
<g>
	<rect x="363" y="867" class="st1" width="354" height="38"/>
	<rect x="363" y="867" class="st2" width="354" height="38"/>
	<rect x="363" y="867" class="st3" width="354" height="38"/>
</g>
<g>
	<rect x="363" y="1002" class="st1" width="354" height="38"/>
	<rect x="363" y="1002" class="st2" width="354" height="38"/>
	<rect x="363" y="1002" class="st3" width="354" height="38"/>
</g>
<g>
	<rect x="363" y="1137" class="st1" width="354" height="38"/>
	<rect x="363" y="1137" class="st2" width="354" height="38"/>
	<rect x="363" y="1137" class="st3" width="354" height="38"/>
</g>
<g>
	<rect x="363" y="1272" class="st1" width="354" height="38"/>
	<rect x="363" y="1272" class="st2" width="354" height="38"/>
	<rect x="363" y="1272" class="st3" width="354" height="38"/>
</g>
<g>
	<rect x="363" y="1407" class="st1" width="354" height="38"/>
	<rect x="363" y="1407" class="st2" width="354" height="38"/>
	<rect x="363" y="1407" class="st3" width="354" height="38"/>
</g>
<g>
	<rect x="363" y="1542" class="st1" width="354" height="38"/>
	<rect x="363" y="1542" class="st2" width="354" height="38"/>
	<rect x="363" y="1542" class="st3" width="354" height="38"/>
</g>
<g>
	<rect x="363" y="1677" class="st1" width="354" height="38"/>
	<rect x="363" y="1677" class="st2" width="354" height="38"/>
	<rect x="363" y="1677" class="st3" width="354" height="38"/>
</g>
<g>
	<rect x="363" y="1812" class="st1" width="354" height="38"/>
	<rect x="363" y="1812" class="st2" width="354" height="38"/>
	<rect x="363" y="1812" class="st3" width="354" height="38"/>
</g>
<g>
	<rect x="363" y="732" class="st1" width="354" height="38"/>
	<rect x="363" y="732" class="st2" width="354" height="38"/>
	<rect x="363" y="732" class="st3" width="354" height="38"/>
</g>
<g>
	<rect x="363" y="597" class="st1" width="354" height="38"/>
	<rect x="363" y="597" class="st2" width="354" height="38"/>
	<rect x="363" y="597" class="st3" width="354" height="38"/>
</g>
<g>
	<rect x="363" y="462" class="st1" width="354" height="38"/>
	<rect x="363" y="462" class="st2" width="354" height="38"/>
	<rect x="363" y="462" class="st3" width="354" height="38"/>
</g>
<g>
	<rect x="363" y="327" class="st1" width="354" height="38"/>
	<rect x="363" y="327" class="st2" width="354" height="38"/>
	<rect x="363" y="327" class="st3" width="354" height="38"/>
</g>
<g>
	<rect x="363" y="192" class="st1" width="354" height="38"/>
	<rect x="363" y="192" class="st2" width="354" height="38"/>
	<rect x="363" y="192" class="st3" width="354" height="38"/>
</g>
<g>
	<rect x="363" y="57" class="st1" width="354" height="38"/>
	<rect x="363" y="57" class="st2" width="354" height="38"/>
	<rect x="363" y="57" class="st3" width="354" height="38"/>
</g>
<rect x="380" y="8" class="st4" width="37" height="1885"/>
<rect x="665" y="8" class="st4" width="37" height="1885"/>
</svg>
