<svg id="Layer_1" data-name="Layer 1" xmlns="http://www.w3.org/2000/svg" viewBox="0 0 358 1885"><defs><style>.cls-1{fill:#8c6239;}.cls-2,.cls-3{fill:none;stroke:#000;stroke-miterlimit:10;}.cls-3{stroke-width:4px;}.cls-4{fill:#4d4d4d;}</style></defs><rect class="cls-1" x="2" y="859" width="354" height="38"/><rect class="cls-2" x="2" y="859" width="354" height="38"/><rect class="cls-3" x="2" y="859" width="354" height="38"/><rect class="cls-1" x="2" y="994" width="354" height="38"/><rect class="cls-2" x="2" y="994" width="354" height="38"/><rect class="cls-3" x="2" y="994" width="354" height="38"/><rect class="cls-1" x="2" y="1129" width="354" height="38"/><rect class="cls-2" x="2" y="1129" width="354" height="38"/><rect class="cls-3" x="2" y="1129" width="354" height="38"/><rect class="cls-1" x="2" y="1264" width="354" height="38"/><rect class="cls-2" x="2" y="1264" width="354" height="38"/><rect class="cls-3" x="2" y="1264" width="354" height="38"/><rect class="cls-1" x="2" y="1399" width="354" height="38"/><rect class="cls-2" x="2" y="1399" width="354" height="38"/><rect class="cls-3" x="2" y="1399" width="354" height="38"/><rect class="cls-1" x="2" y="1534" width="354" height="38"/><rect class="cls-2" x="2" y="1534" width="354" height="38"/><rect class="cls-3" x="2" y="1534" width="354" height="38"/><rect class="cls-1" x="2" y="1669" width="354" height="38"/><rect class="cls-2" x="2" y="1669" width="354" height="38"/><rect class="cls-3" x="2" y="1669" width="354" height="38"/><rect class="cls-1" x="2" y="1804" width="354" height="38"/><rect class="cls-2" x="2" y="1804" width="354" height="38"/><rect class="cls-3" x="2" y="1804" width="354" height="38"/><rect class="cls-1" x="2" y="724" width="354" height="38"/><rect class="cls-2" x="2" y="724" width="354" height="38"/><rect class="cls-3" x="2" y="724" width="354" height="38"/><rect class="cls-1" x="2" y="589" width="354" height="38"/><rect class="cls-2" x="2" y="589" width="354" height="38"/><rect class="cls-3" x="2" y="589" width="354" height="38"/><rect class="cls-1" x="2" y="454" width="354" height="38"/><rect class="cls-2" x="2" y="454" width="354" height="38"/><rect class="cls-3" x="2" y="454" width="354" height="38"/><rect class="cls-1" x="2" y="319" width="354" height="38"/><rect class="cls-2" x="2" y="319" width="354" height="38"/><rect class="cls-3" x="2" y="319" width="354" height="38"/><rect class="cls-1" x="2" y="184" width="354" height="38"/><rect class="cls-2" x="2" y="184" width="354" height="38"/><rect class="cls-3" x="2" y="184" width="354" height="38"/><rect class="cls-1" x="2" y="49" width="354" height="38"/><rect class="cls-2" x="2" y="49" width="354" height="38"/><rect class="cls-3" x="2" y="49" width="354" height="38"/><rect class="cls-4" x="19" width="37" height="1885"/><rect class="cls-4" x="304" width="37" height="1885"/><line class="cls-3" x1="19" x2="19" y2="1885"/><line class="cls-3" x1="56" x2="56" y2="1885"/><line class="cls-3" x1="304" x2="304" y2="1885"/><line class="cls-3" x1="341" x2="341" y2="1885"/></svg>