<svg id="engine" xmlns="http://www.w3.org/2000/svg" viewBox="0 0 294.51 588.02"><defs><style>.cls-1{fill:#787979;}.cls-1,.cls-2,.cls-3{stroke:#231f20;stroke-miterlimit:10;}.cls-2{fill:#bcbcbc;}.cls-3{fill:#4a494a;}</style></defs><rect class="cls-1" x="0.5" y="86.62" width="293.51" height="207.39"/><path class="cls-2" d="M355.19,143.13q-6.12-7.87-12.35-15.69H290.29v293.5H409.87V215.69C391.74,191.43,373.78,167,355.19,143.13Z" transform="translate(-143.03 -126.94)"/><path class="cls-2" d="M225.74,143.13q6.09-7.87,12.28-15.69h52.27v293.5H171.36V215.69C189.39,191.43,207.26,167,225.74,143.13Z" transform="translate(-143.03 -126.94)"/><rect class="cls-2" x="0.5" y="294.01" width="293.51" height="293.51"/><circle class="cls-3" cx="26.66" cy="569.5" r="9.01"/><circle class="cls-3" cx="266.84" cy="569.5" r="9.01"/><circle class="cls-3" cx="27.16" cy="316.4" r="9.01"/><circle class="cls-3" cx="267.34" cy="316.4" r="9.01"/><circle class="cls-3" cx="147.25" cy="233.32" r="43.01"/><circle class="cls-3" cx="147.25" cy="100.91" r="43.01"/><line class="cls-3" x1="27.16" y1="316.4" x2="26.66" y2="569.5"/><path class="cls-3" d="M410.38,443.34l-.51,253.1" transform="translate(-143.03 -126.94)"/></svg>