<svg id="carriage_base" data-name="carriage base" xmlns="http://www.w3.org/2000/svg" viewBox="0 0 294.51 588.02"><defs><style>.cls-1{fill:#bcbcbc;}.cls-1,.cls-2{stroke:#231f20;stroke-miterlimit:10;}.cls-2{fill:#876c2a;}</style></defs><rect class="cls-1" x="0.5" y="0.5" width="293.51" height="587.02"/><rect class="cls-2" x="8.89" y="525.81" width="80.37" height="21.65"/><rect class="cls-2" x="205.17" y="525.81" width="80.37" height="21.65"/><rect class="cls-2" x="8.95" y="485.65" width="80.37" height="21.65"/><rect class="cls-2" x="205.22" y="485.65" width="80.37" height="21.65"/><rect class="cls-2" x="8.95" y="445.49" width="80.37" height="21.65"/><rect class="cls-2" x="205.22" y="445.49" width="80.37" height="21.65"/><rect class="cls-2" x="8.95" y="406.46" width="80.37" height="21.65"/><rect class="cls-2" x="205.22" y="406.46" width="80.37" height="21.65"/><rect class="cls-2" x="8.95" y="366.29" width="80.37" height="21.65"/><rect class="cls-2" x="205.22" y="366.29" width="80.37" height="21.65"/><rect class="cls-2" x="8.95" y="323.92" width="80.37" height="21.65"/><rect class="cls-2" x="205.22" y="323.92" width="80.37" height="21.65"/><rect class="cls-2" x="8.92" y="242.45" width="80.37" height="21.65"/><rect class="cls-2" x="205.19" y="242.45" width="80.37" height="21.65"/><rect class="cls-2" x="8.98" y="202.29" width="80.37" height="21.65"/><rect class="cls-2" x="205.25" y="202.29" width="80.37" height="21.65"/><rect class="cls-2" x="8.98" y="162.13" width="80.37" height="21.65"/><rect class="cls-2" x="205.25" y="162.13" width="80.37" height="21.65"/><rect class="cls-2" x="8.98" y="123.1" width="80.37" height="21.65"/><rect class="cls-2" x="205.25" y="123.1" width="80.37" height="21.65"/><rect class="cls-2" x="8.98" y="82.94" width="80.37" height="21.65"/><rect class="cls-2" x="205.25" y="82.94" width="80.37" height="21.65"/><rect class="cls-2" x="8.98" y="40.56" width="80.37" height="21.65"/><rect class="cls-2" x="205.25" y="40.56" width="80.37" height="21.65"/></svg>