<svg id="carriage_top" data-name="carriage top" xmlns="http://www.w3.org/2000/svg" viewBox="0 0 295.62 588.76"><defs><style>.cls-1{fill:#bcbcbc;}.cls-1,.cls-2{stroke:#231f20;stroke-miterlimit:10;}.cls-2{fill:#4c4c4d;}</style></defs><path class="cls-1" d="M143.53,127.44V421.69H437.78V127.44ZM421.92,386.73H161.84V172.13H421.92Z" transform="translate(-142.66 -126.94)"/><path class="cls-1" d="M143.16,420.94V715.19H437.41V420.94ZM417.42,669.76H158.66V455.16H417.42Z" transform="translate(-142.66 -126.94)"/><circle class="cls-2" cx="19.17" cy="20.64" r="6.34"/><circle class="cls-2" cx="19.17" cy="279.06" r="6.34"/><circle class="cls-2" cx="19.17" cy="309.33" r="6.34"/><circle class="cls-2" cx="19.17" cy="566.89" r="6.34"/><circle class="cls-2" cx="279.26" cy="20.88" r="6.34"/><circle class="cls-2" cx="279.26" cy="279.3" r="6.34"/><circle class="cls-2" cx="279.26" cy="309.58" r="6.34"/><circle class="cls-2" cx="279.26" cy="567.14" r="6.34"/><circle class="cls-2" cx="96.06" cy="20.88" r="6.34"/><circle class="cls-2" cx="96.06" cy="279.3" r="6.34"/><circle class="cls-2" cx="96.06" cy="309.58" r="6.34"/><circle class="cls-2" cx="96.06" cy="567.14" r="6.34"/><circle class="cls-2" cx="199.28" cy="20.88" r="6.34"/><circle class="cls-2" cx="199.28" cy="279.3" r="6.34"/><circle class="cls-2" cx="199.28" cy="309.58" r="6.34"/><circle class="cls-2" cx="199.28" cy="567.14" r="6.34"/></svg>