<svg id="station" xmlns="http://www.w3.org/2000/svg" viewBox="0 0 707.21 1072.2"><defs><style>.cls-1{fill:#969696;}.cls-1,.cls-2,.cls-3,.cls-4,.cls-5{stroke:#231f20;stroke-miterlimit:10;}.cls-2{fill:#f8ed43;}.cls-3{fill:#4c4c4d;}.cls-4{fill:#80653b;}.cls-5{fill:#785a24;}.cls-6{fill:#6cbe45;}</style></defs><rect class="cls-1" x="0.5" y="0.5" width="706.21" height="1070.81"/><rect class="cls-2" x="27.36" y="0.5" width="9.19" height="1070.81"/><rect class="cls-3" x="334.46" y="0.89" width="372.26" height="1070.81"/><rect class="cls-3" x="0.5" y="0.89" width="706.21" height="293.29"/><rect class="cls-4" x="191.65" y="347.98" width="22.47" height="83.96"/><rect class="cls-4" x="220.89" y="347.98" width="22.47" height="83.96"/><rect class="cls-4" x="191.65" y="503.87" width="22.47" height="83.96"/><rect class="cls-4" x="220.89" y="503.87" width="22.47" height="83.96"/><rect class="cls-4" x="191.65" y="659.76" width="22.47" height="83.96"/><rect class="cls-4" x="220.89" y="659.76" width="22.47" height="83.96"/><rect class="cls-4" x="191.65" y="815.56" width="22.47" height="83.96"/><rect class="cls-4" x="220.89" y="815.56" width="22.47" height="83.96"/><rect class="cls-5" x="114.04" y="1011.67" width="39.92" height="39.92"/><rect class="cls-5" x="159.18" y="1011.67" width="39.92" height="39.92"/><rect class="cls-5" x="205.65" y="1011.67" width="39.92" height="39.92"/><rect class="cls-5" x="205.65" y="965.77" width="39.92" height="39.92"/><path class="cls-1" d="M110.57,318.19" transform="translate(-110.07 112.15)"/><rect class="cls-6" x="220.72" y="215.25" width="6.89" height="31.53" transform="translate(-206.95 319.77) rotate(-41.69)"/><rect class="cls-6" x="243.75" y="215.25" width="6.89" height="31.53" transform="translate(108.96 6) rotate(42.16)"/><rect class="cls-6" x="121.95" y="298.91" width="7.91" height="58.18"/><rect class="cls-6" x="409.11" y="508.76" width="6.89" height="31.53" transform="translate(185.24 1293.62) rotate(-131.69)"/><rect class="cls-6" x="409.11" y="485.73" width="6.89" height="31.53" transform="translate(-346.17 582.82) rotate(-47.84)"/><rect class="cls-6" x="393.44" y="483.63" width="7.91" height="58.18" transform="translate(-225.39 1022.27) rotate(-90)"/><rect class="cls-6" x="409.04" y="800.8" width="6.89" height="31.53" transform="translate(-32.94 1779.86) rotate(-131.69)"/><rect class="cls-6" x="409.04" y="777.77" width="6.89" height="31.53" transform="translate(-562.66 678.78) rotate(-47.84)"/><rect class="cls-6" x="393.38" y="775.67" width="7.91" height="58.18" transform="translate(-517.49 1314.24) rotate(-90)"/></svg>