<svg xmlns="http://www.w3.org/2000/svg" viewBox="0 0 287.25 712.48"><defs><style>.cls-1,.cls-2,.cls-3{fill:#9c7f6e;}.cls-1{stroke:#1b0900;}.cls-1,.cls-2,.cls-4,.cls-5,.cls-6{stroke-miterlimit:10;}.cls-2{stroke:#1c1d21;}.cls-4{fill:#7b9969;}.cls-4,.cls-5{stroke:#231f20;}.cls-5{fill:#231f20;}.cls-6{fill:#aa3b3b;stroke:#000;}</style></defs><g id="body"><path class="cls-1" d="M399.34,715.91A111.83,111.83,0,1,1,287.51,604.09,111.83,111.83,0,0,1,399.34,715.91Z" transform="translate(-143.63 -115.76)"/><path class="cls-1" d="M399.34,429.93A111.83,111.83,0,1,1,287.51,318.11,111.83,111.83,0,0,1,399.34,429.93Z" transform="translate(-143.63 -115.76)"/><rect class="cls-2" x="32.05" y="320.99" width="223.65" height="279.16"/><path class="cls-3" d="M398.66,435.59a3.89,3.89,0,0,0-.41-1,4.54,4.54,0,0,0-4.53-3.22,5.08,5.08,0,0,0-2.18.46h-.19a39.93,39.93,0,0,1-10-1.12,5.56,5.56,0,0,0-4.65,1.11,4.17,4.17,0,0,0-4-1.87,636.41,636.41,0,0,1-68.36,1.45c-21.51-.84-43.72-1.21-65.2.9a5.05,5.05,0,0,0-2.48-.7c-9-.25-17.86,1.16-26.81,1.73s-17.59-.33-26.33-1.51a5,5,0,0,0-1.4,0,5.73,5.73,0,0,0-1-.1,4.63,4.63,0,0,0-4.74,4,5.44,5.44,0,0,0,1.23,4.69l.06.06a5.31,5.31,0,0,0,.56.49l.2.13a4.27,4.27,0,0,0,.56.31l.36.14.34.1a5.85,5.85,0,0,0,.75.15h.17a4.2,4.2,0,0,0,.51.05h.73l.27,0,.12,0,.08,0,.12,0,.15,0,.15,0h0c8.39,1.12,16.82,2.14,25.3,1.73s17.13-1.77,25.75-1.85a4.22,4.22,0,0,0,3.31.91c22.13-2.34,45.08-2,67.28-1.1A636.41,636.41,0,0,0,372.64,440a5,5,0,0,0,3.31-1.48,4.25,4.25,0,0,0,2.71,1.88c4.1.79,8.5,1.76,12.69,1.48a5.6,5.6,0,0,0,.82-.13l.14,0a3.33,3.33,0,0,0,.45.13l.1,0a6,6,0,0,0,.75.06h.31a4.58,4.58,0,0,0,.9-.09l.24-.05.21-.05.35-.11.2-.08a2.2,2.2,0,0,0,.31-.15l.17-.08.33-.21.11-.08a4.47,4.47,0,0,0,.4-.34.08.08,0,0,0,0,0s.07-.08.11-.11a5.31,5.31,0,0,0,.86-1.08l.06-.16a3.58,3.58,0,0,0,.41-1l0-.07a5.71,5.71,0,0,0,.17-1.15A4,4,0,0,0,398.66,435.59Z" transform="translate(-143.63 -115.76)"/><path class="cls-3" d="M394,710.68a5.2,5.2,0,0,0-1.35.17,30.68,30.68,0,0,0-4.51.73c-3.53.61-7.42-.07-11-.11-7.69-.07-15.37.22-23,.5l-.35,0c-3.14-2.12-6.35-1.53-10.23-1.32-4.34.23-8.68.48-13,.49-9.67,0-19.31-.95-29-.76a5,5,0,0,0-2.92,1,5.9,5.9,0,0,0-.74,0q-29.21.24-58.4-.38a4.94,4.94,0,0,0-2.11.38,5.89,5.89,0,0,0-1.46-.35c-5.72-.56-11.26.72-17,.65-6.71-.08-13.42-.52-20.12-.94a4.49,4.49,0,0,0-3,.8,6.45,6.45,0,0,0-1.9-.46,49.08,49.08,0,0,0-6.42-.21,5.43,5.43,0,0,0-3.12,1.16l-.06-.06,0,0a3.51,3.51,0,0,0-.36-.29l-.11-.08-.32-.2-.16-.08-.33-.15-.18-.07-.35-.11-.2,0-.4-.07-.19,0q-.3,0-.63,0a5.88,5.88,0,0,0-.6,0l-.19,0c-.13,0-.26,0-.38.06l-.21.06a1.81,1.81,0,0,0-.31.09l-.21.08-.28.11-.19.1-.25.15-.18.11-.23.18-.15.13-.21.19-.13.14c-.07.08-.14.15-.2.23l-.11.14-.18.26a1,1,0,0,1-.08.14c-.06.1-.11.2-.16.3l-.06.12a2.75,2.75,0,0,0-.15.36l0,.08c0,.15-.09.3-.13.45h0a5.82,5.82,0,0,0-.16,2h0l0,.26s0,0,0,.06a5.18,5.18,0,0,0,.26,1,4.55,4.55,0,0,0,1.69,2.44l0,0a4,4,0,0,0,.73.41l.13,0a4,4,0,0,0,.79.24l.06,0a5.44,5.44,0,0,0,1.26.15,4.64,4.64,0,0,0,3.21-1.17,4.49,4.49,0,0,0,3,1,49.08,49.08,0,0,1,6.42.21,4.23,4.23,0,0,0,2.86-.89,5.26,5.26,0,0,0,2.06.55c6.7.42,13.41.86,20.12.94,5.73.07,11.28-1.2,17-.65a4.77,4.77,0,0,0,2.16-.25,5.14,5.14,0,0,0,1.41.22q29.19.63,58.4.38a4.8,4.8,0,0,0,2.95-1,5.54,5.54,0,0,0,.71,0c8.39-.17,16.74.54,25.11.72,7.26.15,14.78-1.11,22-.74a4.86,4.86,0,0,0,2.14.46,4.46,4.46,0,0,0,3.32,1.12c7-.26,14.07-.52,21.12-.51,5.84,0,11.17.43,16.79-.7a5.2,5.2,0,0,0,2,.37,5.24,5.24,0,0,0,0-10.45Z" transform="translate(-143.63 -115.76)"/></g><g id="hand"><circle class="cls-4" cx="255.2" cy="460.57" r="31.55"/><circle class="cls-4" cx="32.05" cy="376.37" r="31.55"/></g><g id="head"><ellipse class="cls-4" cx="141.8" cy="97.87" rx="89.91" ry="97.37"/></g><g id="face"><ellipse class="cls-5" cx="107.82" cy="110.67" rx="7.91" ry="14.49"/><ellipse class="cls-5" cx="179.94" cy="110.67" rx="7.91" ry="14.49"/><path class="cls-4" d="M309.06,215.68A31,31,0,0,1,331.49,200" transform="translate(-143.63 -115.76)"/><path class="cls-4" d="M263.59,215.68a30.42,30.42,0,0,0-8.37-10.42A26.06,26.06,0,0,0,243.53,200" transform="translate(-143.63 -115.76)"/><ellipse class="cls-6" cx="143.88" cy="158.54" rx="24.11" ry="12.94"/></g></svg>